# Blender v2.93.4 OBJ File: ''
# www.blender.org
mtllib Grass.mtl
o Grass_Plane.001
v -77.471298 -1.546974 107.869873
v 174.432693 -1.546974 107.869873
v -77.471298 -1.546974 -128.554123
v 174.432693 -1.546974 -128.554123
v 22.788748 -1.546974 107.869873
v 65.943565 -1.546974 107.869873
v 26.984629 -1.546974 104.932770
v 28.550814 -1.546974 101.213051
v 30.116991 -1.546974 89.858208
v 28.355045 -1.546974 76.937172
v 24.048025 -1.546974 70.476639
v 17.391747 -1.546974 67.735809
v 7.603039 -1.546974 67.540024
v -1.206749 -1.546974 69.497765
v -10.995411 -1.546974 69.497765
v -15.889751 -1.546974 67.540024
v -19.217899 -1.546974 62.254154
v -19.413677 -1.546974 53.444347
v -21.762959 -1.546974 46.983822
v -25.286877 -1.546974 42.285255
v -25.678417 -1.546974 -35.632568
v -27.244610 -1.546974 -50.315567
v -26.657284 -1.546974 -60.495781
v -24.699551 -1.546974 -68.914040
v -20.784077 -1.546974 -76.353455
v -13.736244 -1.546974 -81.051987
v -5.122223 -1.546974 -80.073112
v 9.952335 -1.546974 -86.533653
v 27.571964 -1.546974 -89.666023
v 43.625362 -1.546974 -90.057564
v 59.287224 -1.546974 -89.666008
v 75.340645 -1.546974 -86.142090
v 90.415207 -1.546974 -82.422417
v 104.119339 -1.546974 -75.570335
v 113.712234 -1.546974 -67.543610
v 118.606567 -1.546974 -58.146496
v 117.431915 -1.546974 -41.897316
v 117.431915 -1.546974 -24.865013
v 117.431915 -1.546974 3.522115
v 116.648834 -1.546974 22.120594
v 118.802353 -1.546974 45.221867
v 118.215012 -1.546974 59.121761
v 114.886871 -1.546974 68.714661
v 108.034821 -1.546974 72.434364
v 96.092636 -1.546974 73.021706
v 85.129311 -1.546974 70.868187
v 74.557556 -1.546974 70.280861
v 67.313950 -1.546974 74.196327
v 63.202702 -1.546974 78.503342
v 62.223820 -1.546974 87.508911
v 63.594254 -1.546974 95.339859
v 63.202698 -1.546974 101.213051
v 174.432693 -1.546974 100.033089
v 174.432693 -1.546974 92.624451
v 174.432693 -1.546974 83.635338
v 174.432693 -1.546974 78.004791
v 76.165741 -1.546974 107.869873
v 72.812607 -1.546974 95.114021
v 70.736198 -1.546974 87.215050
v 74.384674 -1.546974 101.094437
v 68.439980 -1.546974 78.479858
v 85.154869 -1.546974 107.869873
v 81.498665 -1.546974 94.901222
v 79.248886 -1.546974 86.921181
v 83.218277 -1.546974 101.000725
v 76.858437 -1.546974 78.442131
v 95.329361 -1.546974 107.869873
v 91.685570 -1.546974 94.651657
v 89.457397 -1.546974 86.568779
v 93.405983 -1.546974 100.892654
v 87.204399 -1.546974 78.395760
v 98.987930 -1.546974 86.239769
v 102.177124 -1.546974 100.799599
v 97.259903 -1.546974 78.350685
v 103.725807 -1.546974 107.869873
v 100.781654 -1.546974 94.428810
v 110.478592 -1.546974 85.843102
v 113.183151 -1.546974 100.682846
v 109.103409 -1.546974 78.297600
v 114.492996 -1.546974 107.869873
v 111.993294 -1.546974 94.154137
v 118.543259 -1.546974 85.564705
v 121.803970 -1.546974 100.591393
v 116.958679 -1.546974 78.262398
v 123.383347 -1.546974 107.869873
v 120.362610 -1.546974 93.949104
v 174.432693 -1.546974 67.435143
v 174.432693 -1.546974 57.853344
v 174.432693 -1.546974 45.011715
v 174.432693 -1.546974 20.341969
v 174.432693 -1.546974 2.009169
v 117.370438 -1.546974 4.982389
v 174.432693 -1.546974 -27.240559
v 174.432693 -1.546974 -45.161057
v 174.432693 -1.546974 -62.136547
v 174.432693 -1.546974 -80.635483
v 113.791092 -1.546974 -67.392212
v 117.930069 -1.546974 -128.554123
v 78.717804 -1.546974 -128.554123
v 59.507259 -1.546974 -128.554123
v 42.032585 -1.546974 -128.554123
v 23.747177 -1.546974 -128.554123
v 1.817741 -1.546974 -128.554123
v -18.087154 -1.546974 -128.554123
v -49.569065 -1.546974 -128.554123
v -77.471298 -1.546974 -102.969620
v -77.471298 -1.546974 -69.173721
v -77.471298 -1.546974 -47.337906
v -77.471298 -1.546974 -26.866043
v -77.471298 -1.546974 47.901516
v -77.471298 -1.546974 66.496094
v -77.471298 -1.546974 79.509674
v -77.471298 -1.546974 91.810822
v -57.374294 -1.546974 107.869873
v -36.698605 -1.546974 107.869873
v -14.752979 -1.546974 107.869873
v 0.991035 -1.546974 107.869873
v 5.037510 -1.546974 72.168190
v -48.071087 -1.546974 76.893715
v -16.544033 -1.546974 74.088478
v 15.978279 -1.546974 71.194695
v -4.458210 -1.546974 73.013092
v -27.358143 -1.546974 75.050690
v 12.710182 -1.546974 107.869873
v 21.915503 -1.546974 77.509888
v -64.418350 -1.546974 85.188004
v -25.809414 -1.546974 81.754303
v -77.471298 -1.546974 86.352707
v 13.076344 -1.546974 78.296005
v 1.047680 -1.546974 79.365776
v -39.446064 -1.546974 82.967087
v -11.354218 -1.546974 80.468735
v 18.105322 -1.546974 90.076210
v -37.078289 -1.546974 91.077736
v 8.188835 -1.546974 90.256195
v -5.123123 -1.546974 90.497787
v -20.895245 -1.546974 90.784027
v -52.251080 -1.546974 91.353111
v -10.501362 -1.546974 100.200035
v -46.960934 -1.546974 99.254265
v 3.971878 -1.546974 100.575478
v 14.836433 -1.546974 100.857307
v -29.156857 -1.546974 99.716095
v -63.654453 -1.546974 98.821205
v -77.471298 -1.546974 98.466995
v -12.997810 -1.546974 104.703583
v -53.268314 -1.546974 104.472740
v 2.249218 -1.546974 104.790985
v 13.623955 -1.546974 104.856171
v -33.660427 -1.546974 104.585144
v -72.119080 -1.546974 104.364693
v -77.471298 -1.546974 104.334503
vt 0.079780 0.000000
vt 0.021247 0.014826
vt 0.000000 0.000000
vt 1.000000 0.033147
vt 0.797346 0.000000
vt 1.000000 0.000000
vt 1.000000 0.064483
vt 0.791076 0.030786
vt 1.000000 0.102505
vt 0.785354 0.058881
vt 1.000000 0.126320
vt 0.778132 0.094344
vt 0.579234 0.124311
vt 0.554557 0.086121
vt 0.588349 0.087363
vt 0.602833 0.028658
vt 0.569323 0.000000
vt 0.609903 0.000000
vt 0.596592 0.053953
vt 0.558443 0.028156
vt 0.574764 0.142429
vt 0.558443 0.124211
vt 0.559997 0.052998
vt 0.612653 0.124470
vt 0.622142 0.088606
vt 0.637900 0.029054
vt 0.645588 0.000000
vt 0.631074 0.054853
vt 0.653724 0.124666
vt 0.662668 0.090097
vt 0.678343 0.029511
vt 0.685978 0.000000
vt 0.671513 0.055909
vt 0.645486 0.156506
vt 0.689008 0.147397
vt 0.693642 0.124857
vt 0.700502 0.091489
vt 0.713162 0.029905
vt 0.719310 0.000000
vt 0.707623 0.056852
vt 0.736416 0.149881
vt 0.740658 0.125081
vt 0.746117 0.093166
vt 0.756854 0.030399
vt 0.762053 0.000000
vt 0.752130 0.058013
vt 0.771842 0.125230
vt 1.000000 0.171026
vt 0.776829 0.206189
vt 1.000000 0.211554
vt 0.779160 0.264982
vt 1.000000 0.265870
vt 1.000000 0.370216
vt 0.773476 0.435182
vt 1.000000 0.447758
vt 0.773720 0.561427
vt 0.773720 0.441359
vt 0.773720 0.633469
vt 1.000000 0.571475
vt 1.000000 0.647273
vt 0.778383 0.702198
vt 1.000000 0.719074
vt 1.000000 0.797319
vt 0.720872 0.775895
vt 0.758954 0.741944
vt 0.775698 1.000000
vt 1.000000 1.000000
vt 0.620034 1.000000
vt 0.666470 0.804877
vt 0.542899 0.835515
vt 0.543773 1.000000
vt 0.480725 0.837172
vt 0.474402 1.000000
vt 0.416997 0.835515
vt 0.401814 1.000000
vt 0.347051 0.822267
vt 0.314759 1.000000
vt 0.235741 1.000000
vt 0.253013 0.799081
vt 0.110765 1.000000
vt 0.225035 0.779207
vt 0.000000 1.000000
vt 0.000000 0.891786
vt 0.000000 0.748839
vt 0.209492 0.747741
vt 0.000000 0.656481
vt 0.201720 0.712134
vt 0.205606 0.606971
vt 0.000000 0.569891
vt 0.207160 0.277403
vt 0.000000 0.253647
vt 0.000000 0.174998
vt 0.230475 0.230203
vt 0.000000 0.119955
vt 0.000000 0.067925
vt 0.051817 0.095937
vt 0.000000 0.091011
vt 0.231252 0.192940
vt 0.198937 0.138815
vt 0.244464 0.170583
vt 0.263894 0.162302
vt 0.289845 0.147433
vt 0.302752 0.162302
vt 0.327541 0.151007
vt 0.337725 0.170583
vt 0.370973 0.155125
vt 0.376584 0.169755
vt 0.403008 0.158162
vt 0.241867 0.142885
vt 0.311702 0.120563
vt 0.116712 0.131020
vt 0.359453 0.125088
vt 0.150951 0.105331
vt 0.394542 0.128413
vt 0.262469 0.115898
vt 0.398009 0.000000
vt 0.361627 0.012747
vt 0.357999 0.000000
vt 0.205086 0.110461
vt 0.420106 0.130836
vt 0.100118 0.069861
vt 0.287205 0.073479
vt 0.379417 0.075262
vt 0.224594 0.072268
vt 0.340051 0.074500
vt 0.160351 0.071026
vt 0.427100 0.076184
vt 0.191797 0.034488
vt 0.323310 0.030853
vt 0.265855 0.032441
vt 0.366440 0.029661
vt 0.054850 0.038273
vt 0.121119 0.036441
vt 0.420883 0.028156
vt 0.173919 0.013893
vt 0.000000 0.039771
vt 0.316472 0.013023
vt 0.255945 0.013392
vt 0.096080 0.014369
vt 0.414666 0.012423
vt 0.311477 0.000000
vt 0.248977 0.000000
vt 0.161858 0.000000
vt 0.000000 0.014954
vt 0.603519 0.158990
vt 0.763617 0.165614
vt 0.770612 0.362693
vt 0.759267 0.741304
vt 0.606628 0.820610
vt 0.287209 0.794940
vt 0.199388 0.669075
vt 0.221149 0.257529
vn 0.0000 1.0000 -0.0000
usemtl Grass.001
s off
f 114/1/1 151/2/1 1/3/1
f 53/4/1 85/5/1 2/6/1
f 54/7/1 83/8/1 53/4/1
f 55/9/1 86/10/1 54/7/1
f 56/11/1 82/12/1 55/9/1
f 61/13/1 50/14/1 59/15/1
f 60/16/1 6/17/1 57/18/1
f 58/19/1 52/20/1 60/16/1
f 61/13/1 48/21/1 49/22/1
f 59/15/1 51/23/1 58/19/1
f 66/24/1 59/15/1 64/25/1
f 65/26/1 57/18/1 62/27/1
f 63/28/1 60/16/1 65/26/1
f 66/24/1 48/21/1 61/13/1
f 64/25/1 58/19/1 63/28/1
f 71/29/1 64/25/1 69/30/1
f 70/31/1 62/27/1 67/32/1
f 68/33/1 65/26/1 70/31/1
f 46/34/1 66/24/1 71/29/1
f 69/30/1 63/28/1 68/33/1
f 45/35/1 71/29/1 74/36/1
f 74/36/1 69/30/1 72/37/1
f 73/38/1 67/32/1 75/39/1
f 76/40/1 70/31/1 73/38/1
f 72/37/1 68/33/1 76/40/1
f 44/41/1 74/36/1 79/42/1
f 79/42/1 72/37/1 77/43/1
f 78/44/1 75/39/1 80/45/1
f 81/46/1 73/38/1 78/44/1
f 77/43/1 76/40/1 81/46/1
f 84/47/1 44/41/1 79/42/1
f 84/47/1 77/43/1 82/12/1
f 83/8/1 80/45/1 85/5/1
f 86/10/1 78/44/1 83/8/1
f 82/12/1 81/46/1 86/10/1
f 87/48/1 84/47/1 56/11/1
f 42/49/1 87/48/1 88/50/1
f 41/51/1 88/50/1 89/52/1
f 90/53/1 41/51/1 89/52/1
f 92/54/1 90/53/1 91/55/1
f 38/56/1 39/57/1 91/55/1
f 37/58/1 93/59/1 94/60/1
f 36/61/1 94/60/1 95/62/1
f 96/63/1 36/61/1 95/62/1
f 34/64/1 35/65/1 96/63/1
f 98/66/1 34/64/1 4/67/1
f 99/68/1 33/69/1 98/66/1
f 31/70/1 99/68/1 100/71/1
f 30/72/1 100/71/1 101/73/1
f 29/74/1 101/73/1 102/75/1
f 28/76/1 102/75/1 103/77/1
f 104/78/1 28/76/1 103/77/1
f 26/79/1 104/78/1 105/80/1
f 25/81/1 105/80/1 3/82/1
f 106/83/1 25/81/1 3/82/1
f 107/84/1 24/85/1 106/83/1
f 108/86/1 23/87/1 107/84/1
f 21/88/1 108/86/1 109/89/1
f 20/90/1 109/89/1 110/91/1
f 111/92/1 20/90/1 110/91/1
f 18/93/1 111/92/1 112/94/1
f 113/95/1 126/96/1 128/97/1
f 17/98/1 123/99/1 16/100/1
f 15/101/1 122/102/1 14/103/1
f 14/103/1 118/104/1 13/105/1
f 13/105/1 121/106/1 12/107/1
f 12/107/1 121/106/1 11/108/1
f 120/109/1 16/100/1 123/99/1
f 122/102/1 130/110/1 118/104/1
f 119/111/1 18/93/1 112/94/1
f 118/104/1 129/112/1 121/106/1
f 119/111/1 131/113/1 123/99/1
f 121/106/1 125/114/1 11/108/1
f 120/109/1 132/115/1 122/102/1
f 5/116/1 149/117/1 124/118/1
f 127/119/1 123/99/1 131/113/1
f 125/114/1 10/120/1 11/108/1
f 126/96/1 138/121/1 131/113/1
f 126/96/1 112/94/1 128/97/1
f 132/115/1 136/122/1 130/110/1
f 129/112/1 133/123/1 125/114/1
f 127/119/1 137/124/1 132/115/1
f 130/110/1 135/125/1 129/112/1
f 134/126/1 131/113/1 138/121/1
f 9/127/1 125/114/1 133/123/1
f 134/126/1 143/128/1 137/124/1
f 136/122/1 141/129/1 135/125/1
f 137/124/1 139/130/1 136/122/1
f 135/125/1 142/131/1 133/123/1
f 113/95/1 144/132/1 138/121/1
f 140/133/1 138/121/1 144/132/1
f 8/134/1 133/123/1 142/131/1
f 141/129/1 149/117/1 142/131/1
f 140/133/1 150/135/1 143/128/1
f 145/136/1 151/2/1 144/132/1
f 139/130/1 148/137/1 141/129/1
f 143/128/1 146/138/1 139/130/1
f 147/139/1 144/132/1 151/2/1
f 7/140/1 142/131/1 149/117/1
f 146/138/1 117/141/1 148/137/1
f 148/137/1 124/118/1 149/117/1
f 150/135/1 116/142/1 146/138/1
f 147/139/1 115/143/1 150/135/1
f 151/2/1 152/144/1 1/3/1
f 114/1/1 147/139/1 151/2/1
f 53/4/1 83/8/1 85/5/1
f 54/7/1 86/10/1 83/8/1
f 55/9/1 82/12/1 86/10/1
f 56/11/1 84/47/1 82/12/1
f 61/13/1 49/22/1 50/14/1
f 60/16/1 52/20/1 6/17/1
f 58/19/1 51/23/1 52/20/1
f 59/15/1 50/14/1 51/23/1
f 66/24/1 61/13/1 59/15/1
f 65/26/1 60/16/1 57/18/1
f 63/28/1 58/19/1 60/16/1
f 66/24/1 47/145/1 48/21/1
f 64/25/1 59/15/1 58/19/1
f 71/29/1 66/24/1 64/25/1
f 70/31/1 65/26/1 62/27/1
f 68/33/1 63/28/1 65/26/1
f 46/34/1 47/145/1 66/24/1
f 69/30/1 64/25/1 63/28/1
f 45/35/1 46/34/1 71/29/1
f 74/36/1 71/29/1 69/30/1
f 73/38/1 70/31/1 67/32/1
f 76/40/1 68/33/1 70/31/1
f 72/37/1 69/30/1 68/33/1
f 44/41/1 45/35/1 74/36/1
f 79/42/1 74/36/1 72/37/1
f 78/44/1 73/38/1 75/39/1
f 81/46/1 76/40/1 73/38/1
f 77/43/1 72/37/1 76/40/1
f 84/47/1 43/146/1 44/41/1
f 84/47/1 79/42/1 77/43/1
f 83/8/1 78/44/1 80/45/1
f 86/10/1 81/46/1 78/44/1
f 82/12/1 77/43/1 81/46/1
f 87/48/1 43/146/1 84/47/1
f 42/49/1 43/146/1 87/48/1
f 41/51/1 42/49/1 88/50/1
f 90/53/1 40/147/1 41/51/1
f 92/54/1 40/147/1 90/53/1
f 91/55/1 93/59/1 38/56/1
f 39/57/1 92/54/1 91/55/1
f 37/58/1 38/56/1 93/59/1
f 36/61/1 37/58/1 94/60/1
f 96/63/1 97/148/1 36/61/1
f 96/63/1 4/67/1 34/64/1
f 35/65/1 97/148/1 96/63/1
f 98/66/1 33/69/1 34/64/1
f 99/68/1 32/149/1 33/69/1
f 31/70/1 32/149/1 99/68/1
f 30/72/1 31/70/1 100/71/1
f 29/74/1 30/72/1 101/73/1
f 28/76/1 29/74/1 102/75/1
f 104/78/1 27/150/1 28/76/1
f 26/79/1 27/150/1 104/78/1
f 25/81/1 26/79/1 105/80/1
f 106/83/1 24/85/1 25/81/1
f 107/84/1 23/87/1 24/85/1
f 108/86/1 22/151/1 23/87/1
f 21/88/1 22/151/1 108/86/1
f 20/90/1 21/88/1 109/89/1
f 111/92/1 19/152/1 20/90/1
f 18/93/1 19/152/1 111/92/1
f 17/98/1 119/111/1 123/99/1
f 15/101/1 120/109/1 122/102/1
f 14/103/1 122/102/1 118/104/1
f 13/105/1 118/104/1 121/106/1
f 120/109/1 15/101/1 16/100/1
f 122/102/1 132/115/1 130/110/1
f 119/111/1 17/98/1 18/93/1
f 118/104/1 130/110/1 129/112/1
f 119/111/1 126/96/1 131/113/1
f 121/106/1 129/112/1 125/114/1
f 120/109/1 127/119/1 132/115/1
f 5/116/1 7/140/1 149/117/1
f 127/119/1 120/109/1 123/99/1
f 126/96/1 113/95/1 138/121/1
f 126/96/1 119/111/1 112/94/1
f 132/115/1 137/124/1 136/122/1
f 129/112/1 135/125/1 133/123/1
f 127/119/1 134/126/1 137/124/1
f 130/110/1 136/122/1 135/125/1
f 134/126/1 127/119/1 131/113/1
f 9/127/1 10/120/1 125/114/1
f 134/126/1 140/133/1 143/128/1
f 136/122/1 139/130/1 141/129/1
f 137/124/1 143/128/1 139/130/1
f 135/125/1 141/129/1 142/131/1
f 113/95/1 145/136/1 144/132/1
f 140/133/1 134/126/1 138/121/1
f 8/134/1 9/127/1 133/123/1
f 141/129/1 148/137/1 149/117/1
f 140/133/1 147/139/1 150/135/1
f 145/136/1 152/144/1 151/2/1
f 139/130/1 146/138/1 148/137/1
f 143/128/1 150/135/1 146/138/1
f 147/139/1 140/133/1 144/132/1
f 7/140/1 8/134/1 142/131/1
f 146/138/1 116/142/1 117/141/1
f 148/137/1 117/141/1 124/118/1
f 150/135/1 115/143/1 116/142/1
f 147/139/1 114/1/1 115/143/1
