# Blender v2.93.4 OBJ File: ''
# www.blender.org
mtllib ManaBar.mtl
o Plane.001
v 8.465535 -1.199150 0.000000
v 8.465535 1.199150 0.000000
v -8.465535 -1.199150 0.000000
v -8.465535 1.199150 0.000000
v -8.049543 -0.999253 0.000000
v -8.049544 0.967531 0.000000
v 8.070277 0.994584 0.000000
v 8.059263 -0.977047 0.000000
vt 0.122891 0.762583
vt 0.112512 0.775975
vt 0.112151 0.704283
vt 0.805927 0.718894
vt 0.816127 0.705846
vt 0.817037 0.774284
vt 0.122850 0.720191
vt 0.805518 0.761163
vn 0.0000 0.0000 1.0000
usemtl Material.002
s off
f 5/1/1 3/2/1 1/3/1
f 7/4/1 2/5/1 4/6/1
f 1/3/1 2/5/1 8/7/1
f 2/5/1 7/4/1 8/7/1
f 8/7/1 5/1/1 1/3/1
f 4/6/1 3/2/1 6/8/1
f 3/2/1 5/1/1 6/8/1
f 6/8/1 7/4/1 4/6/1
