# Blender v2.93.4 OBJ File: ''
# www.blender.org
mtllib MinigamePointer.mtl
o Plane
v -0.007764 0.000501 -0.007437
v -0.007764 -0.367736 -0.007437
v -0.007764 0.000501 -0.334261
v -0.007764 0.228546 0.037241
v -0.007764 0.368738 0.584952
v -0.007764 0.338284 0.633934
v -0.007764 -0.367736 0.017884
v -0.007764 0.000501 0.339195
v -0.007764 0.343268 -0.638483
v -0.007764 0.368738 -0.599366
vt 0.493168 0.757072
vt 0.491724 0.588218
vt 0.562708 0.755544
vt 0.486337 0.588336
vt 0.419414 0.758693
vt 0.368567 0.928696
vt 0.484557 0.861850
vt 0.620560 0.923158
vt 0.628784 0.911296
vt 0.358026 0.914961
vn 1.0000 -0.0000 0.0000
usemtl Material.001
s 1
f 1/1/1 2/2/1 3/3/1
f 7/4/1 1/1/1 8/5/1
f 5/6/1 8/5/1 4/7/1
f 8/5/1 1/1/1 4/7/1
f 10/8/1 3/3/1 9/9/1
f 4/7/1 1/1/1 3/3/1
f 7/4/1 2/2/1 1/1/1
f 5/6/1 6/10/1 8/5/1
f 10/8/1 4/7/1 3/3/1
