# Blender v2.93.4 OBJ File: 'Wizard Fishing Environment.blend'
# www.blender.org
mtllib Wizard TowerDoors.mtl
o House_frame.003_Cylinder.010
v 4.061408 10.665060 16.895044
v 4.061408 10.665060 7.123868
v 7.960107 10.554945 16.895044
v 7.960107 10.554945 7.123868
v -12.385824 1.464751 60.353596
v -8.350239 6.176633 60.353596
v -8.325532 6.202618 68.718834
v -9.448571 5.123521 71.397011
v -11.371794 2.915412 71.397011
v -12.385824 1.464751 68.835587
v -10.600072 4.019427 71.397011
v -12.181547 1.289844 68.835587
v -12.181547 1.289844 60.353600
v -8.121255 6.027710 68.718842
v -8.145963 6.001725 60.353600
v -10.367667 3.570593 71.397018
v -10.367667 3.570593 60.353600
v -9.244294 4.948614 71.397018
v -11.167517 2.740504 71.397018
vt 0.994908 1.004533
vt -0.004827 -0.003041
vt 1.005016 -0.003041
vt 0.423905 0.222152
vt 0.423905 0.222152
vt 0.423905 0.222152
vt 0.423905 0.222152
vt 0.423905 0.222152
vt 0.423905 0.222152
vt 0.563034 0.328410
vt 0.560230 0.328410
vt 0.557555 0.328410
vt 0.568513 0.328410
vt 0.565402 0.328410
vt 0.423905 0.222152
vt 0.423905 0.222152
vt 0.423905 0.222152
vt 0.423905 0.222152
vt 0.423905 0.222152
vt 0.557555 0.328410
vt 0.001911 1.001100
vt 0.423905 0.222152
vt 0.557555 0.328410
vt 0.563034 0.328410
vt 0.568513 0.328410
vt 0.557555 0.328410
vn 0.0282 0.9996 0.0000
vn -0.0000 -0.0000 -1.0000
vn -0.5629 -0.6574 -0.5009
vn -0.7732 0.6303 -0.0703
vn -0.7159 0.6899 -0.1073
vn 0.6504 0.7596 0.0000
vn 0.5359 0.6259 -0.5666
vn 0.7584 -0.6483 0.0669
vn 0.7593 -0.6507 0.0000
vn -0.7382 0.6746 0.0001
vn -0.7380 0.6748 0.0000
vn -0.7827 0.6224 0.0000
vn 0.7531 -0.6559 0.0515
vn 0.7595 -0.6505 -0.0002
usemtl Door
s off
f 1/1/1 4/2/1 2/3/1
f 9/4/2 16/5/2 19/6/2
f 7/7/3 18/8/3 8/9/3
f 16/10/4 18/11/4 14/12/4
f 12/13/5 19/14/5 16/10/5
f 10/15/6 13/16/6 5/17/6
f 10/15/7 19/6/7 12/18/7
f 11/19/2 18/8/2 16/5/2
f 7/7/8 9/4/8 10/15/8
f 5/17/9 7/20/9 10/15/9
f 1/1/1 3/21/1 4/2/1
f 9/4/2 11/19/2 16/5/2
f 7/7/3 14/22/3 18/8/3
f 14/12/10 15/23/10 17/24/10
f 17/24/11 16/10/11 14/12/11
f 16/10/12 17/24/12 12/13/12
f 17/24/12 13/25/12 12/13/12
f 10/15/6 12/18/6 13/16/6
f 10/15/7 9/4/7 19/6/7
f 11/19/2 8/9/2 18/8/2
f 7/7/13 8/9/13 9/4/13
f 5/17/14 6/26/14 7/20/14
