# Blender v2.93.4 OBJ File: 'Wizard Fishing Environment.blend'
# www.blender.org
mtllib Wizard TowerPortal.mtl
o House_frame_Cylinder.004
v -8.325532 6.202618 68.718834
v -10.646403 0.463037 68.835587
v -10.146165 2.160810 71.397011
v -9.024708 4.865783 71.397011
v -8.424809 6.141454 68.718178
v -8.460665 6.141334 60.352943
v -10.642693 0.461598 68.834930
v -10.642693 0.461598 60.352943
vt 0.967778 1.079880
vt 0.784218 0.899949
vt 1.037853 0.904914
vt 1.003242 0.577397
vt 0.829476 0.928168
vt 0.846290 0.570279
vt 0.847859 1.081244
vt 1.015841 0.908202
vn -0.9255 0.3729 -0.0664
vn -0.9335 0.3586 0.0040
vn -0.9226 0.3825 -0.0499
vn -0.9315 0.3637 0.0000
usemtl Magic_Portal
s off
f 3/1/1 1/2/1 2/3/1
f 8/4/2 5/5/2 6/6/2
f 3/1/3 4/7/3 1/2/3
f 8/4/4 7/8/4 5/5/4
