# Blender v2.93.4 OBJ File: 'Wizard Fishing Environment.blend'
# www.blender.org
mtllib WizardTowerLightStone.mtl
o House_frame.001_Cylinder.006
v 83.040924 -61.834114 17.376316
v 80.816711 -60.038292 17.376316
v 78.985580 -57.843052 17.376316
v 77.617905 -55.332760 17.376316
v 76.766243 -52.603886 17.376316
v 76.463326 -49.761292 17.376316
v 76.720787 -46.914219 17.376316
v 77.528740 -44.172081 17.376316
v 78.856133 -41.640259 17.376316
v 80.651955 -39.416046 17.376316
v 82.847191 -37.584915 17.376316
v 85.357483 -36.217239 17.376316
v 88.086365 -35.365578 17.376316
v 89.449982 -35.320393 17.376316
v 94.751640 -35.511696 17.376316
v 96.518166 -36.128075 17.376316
v 99.049988 -37.455471 17.376316
v 101.274200 -39.251289 17.376316
v 103.105331 -41.446529 17.376316
v 104.473007 -43.956821 17.376316
v 105.324669 -46.685696 17.376316
v 105.627586 -49.528290 17.376316
v 105.370125 -52.375359 17.376316
v 104.562172 -55.117496 17.376316
v 103.234779 -57.649323 17.376316
v 101.438957 -59.873535 17.376316
v 99.243713 -61.704666 17.376316
v 96.733429 -63.072338 17.376316
v 94.004547 -63.924004 17.376316
v 91.161957 -64.226921 17.376316
v 88.314880 -63.969460 17.376316
v 85.572746 -63.161507 17.376316
v 89.460953 -35.320084 5.515076
v 94.743446 -35.503937 5.515076
v 90.135971 -36.464256 5.515076
v 94.034668 -36.574371 5.515076
v 79.894089 -60.975945 55.462376
v 82.319237 -62.933998 55.462376
v 77.897545 -58.582397 55.462376
v 76.406319 -55.845329 55.462376
v 75.477722 -52.869934 55.462376
v 75.147430 -49.770546 55.462376
v 75.428154 -46.666279 55.462376
v 76.309097 -43.676422 55.462376
v 77.756401 -40.915878 55.462376
v 79.714455 -38.490738 55.462376
v 82.108002 -36.494190 55.462376
v 84.845070 -35.002960 55.462376
v 87.820465 -34.074364 55.462376
v 89.909370 -33.675472 55.462376
v 95.087868 -34.233677 55.462376
v 97.013977 -34.905743 55.462376
v 99.774521 -36.353050 55.462376
v 102.199661 -38.311096 55.462376
v 104.196213 -40.704651 55.462376
v 105.687439 -43.441715 55.462376
v 106.616035 -46.417110 55.462376
v 106.946320 -49.516495 55.462376
v 106.665604 -52.620766 55.462376
v 105.784660 -55.610619 55.462376
v 104.337349 -58.371162 55.462376
v 102.379303 -60.796310 55.462376
v 99.985748 -62.792858 55.462376
v 97.248688 -64.284081 55.462376
v 94.273293 -65.212677 55.462376
v 91.173904 -65.542969 55.462376
v 88.069633 -65.262245 55.462376
v 85.079773 -64.381302 55.462376
v 87.845688 -34.221275 54.762135
v 89.631401 -33.991592 54.762135
v 106.810631 -49.533493 54.762135
v 106.532272 -52.611645 54.762135
v 88.092751 -65.146774 54.762135
v 85.128052 -64.273239 54.762135
v 77.866287 -41.005234 54.762135
v 79.807869 -38.600494 54.762135
v 102.103905 -38.422367 54.762135
v 104.083656 -40.795780 54.762135
v 99.908615 -62.698158 54.762135
v 97.194580 -64.176834 54.762135
v 75.606773 -52.858715 54.762135
v 75.279266 -49.785404 54.762135
v 95.051941 -34.379250 54.762135
v 105.658737 -55.576347 54.762135
v 82.390732 -62.838112 54.762135
v 79.985992 -60.896530 54.762135
v 82.181274 -36.620743 54.762135
v 105.562340 -43.509819 54.762135
v 94.244217 -65.097626 54.762135
v 75.557632 -46.707253 54.762135
v 96.961845 -35.045662 54.762135
v 104.223610 -58.313667 54.762135
v 78.006241 -58.523121 54.762135
v 84.895317 -35.142059 54.762135
v 106.483124 -46.460182 54.762135
v 91.170906 -65.425133 54.762135
v 76.431160 -43.742554 54.762135
v 99.699165 -36.480793 54.762135
v 102.282028 -60.718407 54.762135
v 76.527557 -55.809082 54.762135
v 92.483688 -34.195576 54.762135
v 92.383919 -35.426258 17.376316
v 83.040924 -61.834114 16.140671
v 80.816711 -60.038292 16.140671
v 78.985580 -57.843052 16.140671
v 77.617905 -55.332760 16.140671
v 76.766243 -52.603886 16.140671
v 76.463326 -49.761292 16.140671
v 76.720787 -46.914219 16.140671
v 77.528740 -44.172081 16.140671
v 78.856133 -41.640259 16.140671
v 80.651955 -39.416046 16.140671
v 82.847191 -37.584915 16.140671
v 85.357483 -36.217239 16.140671
v 88.086365 -35.365578 16.140671
v 96.518166 -36.128075 16.140671
v 99.049988 -37.455471 16.140671
v 101.274200 -39.251289 16.140671
v 103.105331 -41.446529 16.140671
v 104.473007 -43.956821 16.140671
v 105.324669 -46.685696 16.140671
v 105.627586 -49.528290 16.140671
v 105.370125 -52.375359 16.140671
v 104.562172 -55.117496 16.140671
v 103.234779 -57.649323 16.140671
v 101.438957 -59.873535 16.140671
v 99.243713 -61.704666 16.140671
v 96.733429 -63.072338 16.140671
v 94.004547 -63.924004 16.140671
v 91.161957 -64.226921 16.140671
v 88.314880 -63.969460 16.140671
v 85.572746 -63.161507 16.140671
v 89.457672 -35.320175 16.195858
v 94.746109 -35.506454 16.238686
vt 0.431541 0.328410
vt 0.426062 0.322163
vt 0.431541 0.322163
vt 0.530161 0.328410
vt 0.535640 0.328410
vt 0.530161 0.328410
vt 0.437020 0.328410
vt 0.437020 0.322163
vt 0.442499 0.328410
vt 0.442499 0.322163
vt 0.447978 0.328410
vt 0.447978 0.322163
vt 0.453457 0.328410
vt 0.453457 0.322163
vt 0.458936 0.328410
vt 0.458936 0.322163
vt 0.464414 0.328410
vt 0.464414 0.322163
vt 0.469893 0.328410
vt 0.469893 0.322163
vt 0.475372 0.328410
vt 0.475372 0.322163
vt 0.480851 0.328410
vt 0.480851 0.322163
vt 0.486330 0.328410
vt 0.486330 0.322163
vt 0.491809 0.328410
vt 0.491809 0.322163
vt 0.497288 0.328410
vt 0.497288 0.322163
vt 0.502767 0.328410
vt 0.502767 0.322163
vt 0.508246 0.328410
vt 0.508246 0.322163
vt 0.513724 0.328410
vt 0.513724 0.322163
vt 0.519203 0.328410
vt 0.519203 0.322163
vt 0.541119 0.328410
vt 0.535640 0.322163
vt 0.541119 0.322163
vt 0.546598 0.328410
vt 0.546598 0.322163
vt 0.552077 0.328410
vt 0.552077 0.322163
vt 0.557555 0.328410
vt 0.557555 0.322163
vt 0.563034 0.328410
vt 0.563034 0.322163
vt 0.568513 0.328410
vt 0.568513 0.322163
vt 0.573992 0.328410
vt 0.573992 0.322163
vt 0.579471 0.328410
vt 0.579471 0.322163
vt 0.584950 0.328410
vt 0.584950 0.322163
vt 0.590429 0.328410
vt 0.590429 0.322163
vt 0.595908 0.328410
vt 0.595908 0.322163
vt 0.601387 0.328410
vt 0.601387 0.322163
vt -0.773228 2.495630
vt 1.628618 2.418377
vt -0.687758 2.684471
vt 0.486330 0.328410
vt 0.480851 0.328410
vt 0.480851 0.328410
vt 0.431541 0.328410
vt 0.437020 0.328410
vt 0.431541 0.328410
vt 0.552077 0.328410
vt 0.557555 0.328410
vt 0.552077 0.328410
vt 0.508246 0.328410
vt 0.502767 0.328410
vt 0.502767 0.328410
vt 0.458936 0.328410
vt 0.453457 0.328410
vt 0.453457 0.328410
vt 0.573992 0.328410
vt 0.579471 0.328410
vt 0.573992 0.328410
vt 0.527278 0.328410
vt 0.524682 0.328410
vt 0.475372 0.328410
vt 0.475372 0.328410
vt 0.595908 0.328410
vt 0.601387 0.328410
vt 0.595908 0.328410
vt 0.426062 0.328410
vt 0.426062 0.328410
vt 0.546598 0.328410
vt 0.546598 0.328410
vt 0.497288 0.328410
vt 0.497288 0.328410
vt 0.447978 0.328410
vt 0.447978 0.328410
vt 0.568513 0.328410
vt 0.568513 0.328410
vt 0.524682 0.328410
vt 0.519203 0.328410
vt 0.519203 0.328410
vt 0.469893 0.328410
vt 0.469893 0.328410
vt 0.590429 0.328410
vt 0.590429 0.328410
vt 0.541119 0.328410
vt 0.541119 0.328410
vt 0.491809 0.328410
vt 0.491809 0.328410
vt 0.442499 0.328410
vt 0.442499 0.328410
vt 0.563034 0.328410
vt 0.563034 0.328410
vt 0.513724 0.328410
vt 0.513724 0.328410
vt 0.464414 0.328410
vt 0.464414 0.328410
vt 0.584950 0.328410
vt 0.584950 0.328410
vt 0.535640 0.328410
vt 0.486330 0.328410
vt 0.437020 0.328410
vt 0.557555 0.328410
vt 0.508246 0.328410
vt 0.458936 0.328410
vt 0.579471 0.328410
vt 0.524682 0.321459
vt 0.530161 0.321198
vt 0.535640 0.328410
vt 0.530161 0.328410
vt 0.527129 0.328410
vt 0.426062 0.328410
vt 1.543148 2.229536
vt 0.601387 0.328410
vt 0.524682 0.328410
vn -0.4643 -0.8857 0.0000
vn -0.1760 0.9215 -0.3462
vn -0.2826 -0.9592 0.0000
vn -0.0901 -0.9959 0.0000
vn 0.1060 -0.9944 0.0000
vn 0.2979 -0.9546 0.0000
vn 0.4784 -0.8781 0.0000
vn 0.6406 -0.7679 0.0000
vn 0.7781 -0.6282 0.0000
vn 0.8857 -0.4643 0.0000
vn 0.9592 -0.2826 0.0000
vn 0.9959 -0.0901 0.0000
vn 0.9944 0.1060 0.0000
vn 0.9546 0.2979 0.0000
vn 0.8781 0.4784 0.0000
vn 0.7679 0.6405 0.0000
vn 0.6282 0.7781 0.0000
vn 0.4643 0.8857 0.0000
vn -0.2979 0.9546 0.0000
vn -0.4784 0.8781 0.0000
vn -0.6406 0.7679 0.0000
vn -0.7781 0.6282 0.0000
vn -0.8857 0.4643 0.0000
vn -0.9592 0.2826 0.0000
vn -0.9959 0.0901 0.0000
vn -0.9944 -0.1060 0.0000
vn -0.9546 -0.2979 0.0000
vn -0.8781 -0.4784 0.0000
vn -0.7679 -0.6405 0.0000
vn -0.6282 -0.7781 0.0000
vn -0.0000 0.0000 1.0000
vn 0.9783 -0.0885 -0.1874
vn -0.2787 -0.9460 -0.1652
vn -0.7626 0.6157 -0.1982
vn 0.7520 0.6273 -0.2025
vn 0.4715 -0.8655 -0.1690
vn -0.9778 -0.1042 -0.1819
vn 0.1013 0.9400 -0.3257
vn 0.9430 -0.2778 -0.1832
vn -0.6192 -0.7670 -0.1682
vn -0.4579 -0.8733 -0.1663
vn -0.6274 0.7522 -0.2016
vn 0.8605 0.4688 -0.1993
vn 0.2937 -0.9412 -0.1668
vn -0.9785 0.0885 -0.1861
vn 0.3222 0.9234 -0.2085
vn 0.8713 -0.4568 -0.1790
vn -0.7566 -0.6311 -0.1709
vn -0.4683 0.8596 -0.2044
vn 0.9361 0.2922 -0.1957
vn 0.1045 -0.9807 -0.1655
vn -0.9417 0.2775 -0.1904
vn 0.4543 0.8665 -0.2070
vn 0.7660 -0.6185 -0.1752
vn -0.8647 -0.4711 -0.1741
vn -0.2915 0.9340 -0.2065
vn 0.9759 0.1040 -0.1916
vn -0.0888 -0.9823 -0.1649
vn -0.8688 0.4555 -0.1944
vn 0.6148 0.7615 -0.2051
vn 0.6310 -0.7565 -0.1718
vn -0.9394 -0.2932 -0.1778
vn 0.3310 0.9436 0.0000
vn -0.0331 0.9995 -0.0000
vn 0.0361 0.9993 0.0004
vn -0.1248 0.9701 -0.2080
vn 0.6405 -0.7679 0.0000
vn -0.6405 0.7679 0.0000
vn 0.0698 0.9760 -0.2065
vn 0.0643 0.8997 -0.4317
vn 0.9430 -0.2779 -0.1832
vn -0.6192 -0.7670 -0.1683
vn -0.6274 0.7521 -0.2016
vn 0.2937 -0.9412 -0.1669
vn 0.8713 -0.4568 -0.1791
vn -0.8688 0.4555 -0.1945
vn 0.3294 0.9442 0.0027
vn 0.0361 0.9993 0.0044
vn 0.0352 0.9994 0.0026
usemtl Stonr_brick_Highlight
s off
f 32/1/1 103/2/1 132/3/1
f 70/4/2 49/5/2 50/6/2
f 31/7/3 132/3/3 131/8/3
f 30/9/4 131/8/4 130/10/4
f 29/11/5 130/10/5 129/12/5
f 28/13/6 129/12/6 128/14/6
f 27/15/7 128/14/7 127/16/7
f 26/17/8 127/16/8 126/18/8
f 25/19/9 126/18/9 125/20/9
f 24/21/10 125/20/10 124/22/10
f 23/23/11 124/22/11 123/24/11
f 22/25/12 123/24/12 122/26/12
f 21/27/13 122/26/13 121/28/13
f 20/29/14 121/28/14 120/30/14
f 19/31/15 120/30/15 119/32/15
f 18/33/16 119/32/16 118/34/16
f 17/35/17 118/34/17 117/36/17
f 16/37/18 117/36/18 116/38/18
f 12/39/19 115/40/19 114/41/19
f 11/42/20 114/41/20 113/43/20
f 10/44/21 113/43/21 112/45/21
f 9/46/22 112/45/22 111/47/22
f 8/48/23 111/47/23 110/49/23
f 7/50/24 110/49/24 109/51/24
f 6/52/25 109/51/25 108/53/25
f 5/54/26 108/53/26 107/55/26
f 4/56/27 107/55/27 106/57/27
f 3/58/28 106/57/28 105/59/28
f 2/60/29 105/59/29 104/61/29
f 1/62/30 104/61/30 103/63/30
f 34/64/31 35/65/31 36/66/31
f 71/67/32 59/68/32 72/69/32
f 74/70/33 67/71/33 68/72/33
f 76/73/34 45/74/34 46/75/34
f 77/76/35 55/77/35 78/78/35
f 79/79/36 64/80/36 80/81/36
f 82/82/37 41/83/37 42/84/37
f 101/85/38 50/6/38 51/86/38
f 72/69/39 60/87/39 84/88/39
f 86/89/40 38/90/40 37/91/40
f 85/92/41 68/72/41 38/93/41
f 87/94/42 46/75/42 47/95/42
f 78/78/43 56/96/43 88/97/43
f 80/81/44 65/98/44 89/99/44
f 90/100/45 42/84/45 43/101/45
f 83/102/46 52/103/46 91/104/46
f 84/88/47 61/105/47 92/106/47
f 93/107/48 37/91/48 39/108/48
f 94/109/49 47/95/49 48/110/49
f 88/97/50 57/111/50 95/112/50
f 89/99/51 66/113/51 96/114/51
f 97/115/52 43/101/52 44/116/52
f 91/104/53 53/117/53 98/118/53
f 92/106/54 62/119/54 99/120/54
f 100/121/55 39/108/55 40/122/55
f 69/123/56 48/110/56 49/5/56
f 95/112/57 58/124/57 71/67/57
f 96/114/58 67/71/58 73/125/58
f 75/126/59 44/116/59 45/74/59
f 98/118/60 54/127/60 77/76/60
f 99/120/61 63/128/61 79/79/61
f 81/129/62 40/122/62 41/83/62
f 134/130/63 16/37/63 116/38/63
f 133/131/64 13/132/64 14/133/64
f 133/131/65 14/133/65 102/134/65
f 32/1/1 1/135/1 103/2/1
f 70/4/66 69/123/66 49/5/66
f 31/7/3 32/1/3 132/3/3
f 30/9/4 31/7/4 131/8/4
f 29/11/5 30/9/5 130/10/5
f 28/13/6 29/11/6 129/12/6
f 27/15/7 28/13/7 128/14/7
f 26/17/67 27/15/67 127/16/67
f 25/19/9 26/17/9 126/18/9
f 24/21/10 25/19/10 125/20/10
f 23/23/11 24/21/11 124/22/11
f 22/25/12 23/23/12 123/24/12
f 21/27/13 22/25/13 122/26/13
f 20/29/14 21/27/14 121/28/14
f 19/31/15 20/29/15 120/30/15
f 18/33/16 19/31/16 119/32/16
f 17/35/17 18/33/17 118/34/17
f 16/37/18 17/35/18 117/36/18
f 12/39/19 13/132/19 115/40/19
f 11/42/20 12/39/20 114/41/20
f 10/44/68 11/42/68 113/43/68
f 9/46/22 10/44/22 112/45/22
f 8/48/23 9/46/23 111/47/23
f 7/50/24 8/48/24 110/49/24
f 6/52/25 7/50/25 109/51/25
f 5/54/26 6/52/26 108/53/26
f 4/56/27 5/54/27 107/55/27
f 3/58/28 4/56/28 106/57/28
f 2/60/29 3/58/29 105/59/29
f 1/62/30 2/60/30 104/61/30
f 34/64/31 33/136/31 35/65/31
f 71/67/32 58/124/32 59/68/32
f 74/70/33 73/125/33 67/71/33
f 76/73/34 75/126/34 45/74/34
f 77/76/35 54/127/35 55/77/35
f 79/79/36 63/128/36 64/80/36
f 82/82/37 81/129/37 41/83/37
f 51/86/69 83/102/69 101/85/69
f 101/85/70 70/4/70 50/6/70
f 72/69/71 59/68/71 60/87/71
f 86/89/72 85/137/72 38/90/72
f 85/92/41 74/70/41 68/72/41
f 87/94/73 76/73/73 46/75/73
f 78/78/43 55/77/43 56/96/43
f 80/81/74 64/80/74 65/98/74
f 90/100/45 82/82/45 42/84/45
f 83/102/46 51/86/46 52/103/46
f 84/88/75 60/87/75 61/105/75
f 93/107/48 86/89/48 37/91/48
f 94/109/49 87/94/49 47/95/49
f 88/97/50 56/96/50 57/111/50
f 89/99/51 65/98/51 66/113/51
f 97/115/52 90/100/52 43/101/52
f 91/104/53 52/103/53 53/117/53
f 92/106/54 61/105/54 62/119/54
f 100/121/55 93/107/55 39/108/55
f 69/123/56 94/109/56 48/110/56
f 95/112/57 57/111/57 58/124/57
f 96/114/58 66/113/58 67/71/58
f 75/126/76 97/115/76 44/116/76
f 98/118/60 53/117/60 54/127/60
f 99/120/61 62/119/61 63/128/61
f 81/129/62 100/121/62 40/122/62
f 134/130/77 15/138/77 16/37/77
f 133/131/64 115/40/64 13/132/64
f 15/138/78 134/130/78 102/134/78
f 134/130/79 133/131/79 102/134/79
