# Blender v2.93.4 OBJ File: 'Wizard Fishing Environment.blend'
# www.blender.org
mtllib Wizard TowerWindows.mtl
o Cube.004_Cube.008
v -9.838384 -15.636443 40.318077
v -9.838384 -15.636443 43.716267
v -9.019618 -11.341170 43.716267
v -9.019618 -11.341170 40.318077
v 8.886578 11.719904 65.181381
v 8.886578 11.719904 69.994202
v 3.708080 12.278107 65.181381
v 3.708080 12.278107 69.994202
v -1.366707 4.343237 43.768860
v -1.115408 4.115246 37.624699
v -4.157744 -0.980298 43.768860
v -3.821554 -1.046369 37.624699
v -3.584118 0.966558 43.768860
v -3.265374 0.841271 37.624699
v -2.351621 2.584135 37.624699
v -2.641699 2.764095 43.768860
vt 0.518608 0.500939
vt 0.501831 0.525016
vt 0.501831 0.501502
vt 0.530161 0.328410
vt 0.524682 0.328410
vt 0.524682 0.328410
vt 4.597246 3.536610
vt 4.130991 3.536610
vt 4.130991 3.536610
vt 5.063507 3.536622
vt 4.597246 3.536610
vt 3.664740 3.536610
vt 3.664734 3.536610
vt 0.518608 0.525016
vt 0.530161 0.328410
vt 5.063507 3.536610
vn -0.9823 0.1872 0.0000
vn 0.1072 0.9942 0.0000
vn -0.8843 0.4636 -0.0553
vn -0.9578 0.2822 -0.0554
vn -0.7769 0.6272 -0.0550
usemtl Window
s off
f 2/1/1 4/2/1 1/3/1
f 7/4/2 6/5/2 5/6/2
f 14/7/3 16/8/3 15/9/3
f 12/10/4 13/11/4 14/7/4
f 15/9/5 9/12/5 10/13/5
f 2/1/1 3/14/1 4/2/1
f 7/4/2 8/15/2 6/5/2
f 14/7/3 13/11/3 16/8/3
f 12/10/4 11/16/4 13/11/4
f 15/9/5 16/8/5 9/12/5
