{
    "asset" : {
        "generator" : "Khronos glTF Blender I/O v1.6.16",
        "version" : "2.0"
    },
    "scene" : 0,
    "scenes" : [
        {
            "name" : "Scene",
            "nodes" : [
                0,
                1,
                2
            ]
        }
    ],
    "nodes" : [
        {
            "name" : "Ref",
            "rotation" : [
                0.7071068286895752,
                0,
                0,
                0.7071068286895752
            ]
        },
        {
            "mesh" : 0,
            "name" : "Cylinder",
            "rotation" : [
                0,
                0,
                -0.7071067690849304,
                0.7071068286895752
            ],
            "scale" : [
                0.5935201048851013,
                0.5935201048851013,
                0.5935201048851013
            ],
            "translation" : [
                0.5276637673377991,
                1.126207709312439,
                0
            ]
        },
        {
            "name" : "Cross section",
            "rotation" : [
                0.5,
                0.5,
                -0.5,
                0.4999999701976776
            ],
            "scale" : [
                0.40762749314308167,
                0.40762749314308167,
                0.40762749314308167
            ],
            "translation" : [
                2.7911925315856934,
                0.5053496956825256,
                -0.03281491622328758
            ]
        }
    ],
    "meshes" : [
        {
            "name" : "Cylinder",
            "primitives" : [
                {
                    "attributes" : {
                        "POSITION" : 0,
                        "NORMAL" : 1,
                        "TEXCOORD_0" : 2
                    },
                    "indices" : 3
                }
            ]
        }
    ],
    "accessors" : [
        {
            "bufferView" : 0,
            "componentType" : 5126,
            "count" : 1213,
            "max" : [
                1.1363818645477295,
                2.981139898300171,
                0.8188561201095581
            ],
            "min" : [
                -1.842279314994812,
                -3.4913058280944824,
                -0.8188561201095581
            ],
            "type" : "VEC3"
        },
        {
            "bufferView" : 1,
            "componentType" : 5126,
            "count" : 1213,
            "type" : "VEC3"
        },
        {
            "bufferView" : 2,
            "componentType" : 5126,
            "count" : 1213,
            "type" : "VEC2"
        },
        {
            "bufferView" : 3,
            "componentType" : 5123,
            "count" : 5352,
            "type" : "SCALAR"
        }
    ],
    "bufferViews" : [
        {
            "buffer" : 0,
            "byteLength" : 14556,
            "byteOffset" : 0
        },
        {
            "buffer" : 0,
            "byteLength" : 14556,
            "byteOffset" : 14556
        },
        {
            "buffer" : 0,
            "byteLength" : 9704,
            "byteOffset" : 29112
        },
        {
            "buffer" : 0,
            "byteLength" : 10704,
            "byteOffset" : 38816
        }
    ],
    "buffers" : [
        {
            "byteLength" : 49520,
            "uri" : "data:application/octet-stream;base64,"
        }
    ]
}
